<svg width="16" height="12" viewBox="0 0 16 12" fill="none" xmlns="http://www.w3.org/2000/svg">
<path d="M8.051 0H8.14C8.962 0.003 13.127 0.0330002 14.25 0.335C14.5895 0.427169 14.8989 0.606822 15.1472 0.856008C15.3955 1.10519 15.574 1.41518 15.665 1.755C15.766 2.135 15.837 2.638 15.885 3.157L15.895 3.261L15.917 3.521L15.925 3.625C15.99 4.539 15.998 5.395 15.999 5.582V5.657C15.998 5.851 15.989 6.765 15.917 7.717L15.909 7.822L15.9 7.926C15.85 8.498 15.776 9.066 15.665 9.484C15.574 9.82382 15.3955 10.1338 15.1472 10.383C14.8989 10.6322 14.5895 10.8118 14.25 10.904C13.09 11.216 8.681 11.238 8.07 11.239H7.928C7.619 11.239 6.341 11.233 5.001 11.187L4.831 11.181L4.744 11.177L4.573 11.17L4.402 11.163C3.292 11.114 2.235 11.035 1.748 10.903C1.40863 10.8109 1.09935 10.6314 0.851051 10.3824C0.602753 10.1334 0.424123 9.82363 0.333 9.484C0.222 9.067 0.148 8.498 0.098 7.926L0.09 7.821L0.082 7.717C0.0323634 7.03941 0.00501532 6.36038 0 5.681L0 5.558C0.002 5.343 0.01 4.6 0.064 3.78L0.071 3.677L0.074 3.625L0.082 3.521L0.104 3.261L0.114 3.157C0.162 2.638 0.233 2.134 0.334 1.755C0.42497 1.41518 0.603532 1.10519 0.85184 0.856008C1.10015 0.606822 1.40951 0.427169 1.749 0.335C2.236 0.205 3.293 0.125 4.403 0.0749999L4.573 0.068L4.745 0.0620002L4.831 0.0590001L5.002 0.0520002C5.95371 0.0214036 6.90581 0.00440176 7.858 0.00100005L8.051 0ZM6.4 3.21V8.028L10.557 5.62L6.4 3.21Z" fill="black"/>
</svg>
