<svg width="335" height="42" viewBox="0 0 335 42" fill="none" xmlns="http://www.w3.org/2000/svg">
<path d="M41.9819 0.901123H34.5352V8.05107H41.9819V0.901123Z" fill="#FF91A8"/>
<path d="M29.1421 2.49146H12.049C10.8035 2.49146 9.6242 3.01307 8.81592 3.91636L1.83293 11.6897C0.706642 12.9747 0.203125 14.3232 0.203125 16.0535V41.0147H26.2005C28.0026 41.0147 29.4071 40.5312 30.7322 39.4498L38.8414 32.7452C39.7822 31.9691 40.3255 30.8368 40.3255 29.6409V13.2291H29.1421V2.49146ZM36.0721 28.5849C36.0721 29.2465 35.7806 29.8699 35.2638 30.2897L28.2808 36.1038C27.6183 36.6509 26.7835 36.9562 25.909 36.9562H4.43002V16.3333C4.43002 15.4937 4.74803 14.6922 5.3178 14.0561L11.3733 7.35138C11.8238 6.85521 12.473 6.57532 13.1488 6.57532H24.8887V13.2418H11.8768V29.819H29.1421V17.3257H36.0853V28.5977L36.0721 28.5849ZM24.8887 17.313V25.7351H16.1169V17.313H24.8887Z" fill="#FF6683"/>
<path d="M73.5443 30.0989C68.5356 30.5187 56.1465 31.6001 61.3274 23.6486L58.3593 22.809C51.7606 32.8723 66.3493 34.8061 73.7696 33.1395L73.5443 30.1116V30.0989Z" fill="#5C5B5B"/>
<path d="M69.2119 14.4248C68.7746 14.4248 68.4169 14.4502 68.1651 14.4502C67.6086 12.8981 67.2243 11.6641 66.8931 10.29H63.6202C63.925 11.435 64.4152 13.0508 64.879 14.552C62.7722 14.6029 56.836 14.6156 55.1797 14.5902V17.6435C58.0815 17.6435 64.0045 17.6563 65.886 17.5799C66.7473 20.1626 67.8869 22.936 69.0397 25.2388L72.3788 24.5899C71.226 22.4144 70.1659 20.0481 69.2252 17.4909C70.8682 17.3891 75.3999 17.3382 76.5659 17.1601V14.094C75.5191 14.2467 71.5042 14.3485 69.2252 14.4121L69.2119 14.4248Z" fill="#5C5B5B"/>
<path d="M87.7755 22.7072C87.1395 22.2365 86.8612 21.9312 86.7552 21.7785C86.7022 21.6895 86.6359 21.4859 86.7552 21.2951C86.848 21.1424 86.954 21.0661 87.3117 20.8243C87.6827 20.5826 99.3829 12.5294 99.3829 12.5294L97.1966 9.95947L84.5291 18.9923C83.9196 19.4122 83.6546 19.6157 83.3498 19.9592C83.0451 20.3027 82.7403 20.9007 82.7138 21.4605C82.6741 22.2365 83.0451 22.9108 83.9461 23.6487C84.2244 23.8904 97.2098 33.992 97.2098 33.992L99.5419 31.4093C99.5419 31.4093 88.1465 22.9617 87.7755 22.72V22.7072Z" fill="#5C5B5B"/>
<path d="M152.901 15.8625C151.881 14.3994 150.516 13.3308 148.873 12.6565C147.296 12.0204 145.56 11.7278 143.692 11.7914C141.612 11.8677 139.73 12.4529 138.114 13.5089C136.55 14.5267 135.305 15.8625 134.39 17.5164C133.41 19.2848 132.906 21.2059 132.906 23.2415C132.906 25.3534 133.383 27.2999 134.258 28.6993C135 29.8952 135.994 30.684 137.107 30.9639C137.955 31.1802 138.776 31.1802 139.545 30.9512C139.836 30.8621 140.088 30.7731 140.327 30.6458C140.91 30.3787 141.479 29.9716 142.036 29.3736C142.327 29.0683 142.606 28.7121 142.857 28.3049C143.308 27.5798 143.692 26.7274 144.023 25.7859C144.394 24.7427 144.686 23.674 144.924 22.5163C145.057 21.8929 145.163 21.2568 145.269 20.6079C145.481 19.1194 145.68 17.1602 145.825 15.0864C146.607 15.2264 147.402 15.4936 147.985 15.8116C148.542 16.117 149.045 16.5241 149.469 17.033C150.41 18.1525 150.953 19.4756 151.099 20.9642C151.152 21.4603 151.152 21.9819 151.126 22.529C151.033 24.2465 150.596 25.6841 149.801 26.7655C148.86 28.0505 147.561 28.852 145.136 29.6917L146.183 32.6814C146.183 32.6814 146.899 32.516 147.628 32.287C149.297 31.7527 150.728 30.9003 151.854 29.6917C152.676 28.8138 153.365 27.7452 153.882 26.5111C154.451 25.1371 154.73 23.5595 154.703 21.7911C154.663 19.4756 154.054 17.4782 152.901 15.8625ZM142.447 15.0864C142.447 15.1501 142.447 15.2137 142.447 15.2264C142.38 16.4986 142.274 17.7327 142.115 18.865C141.943 20.099 141.731 21.2949 141.479 22.4272C141.241 23.5213 140.923 24.5519 140.552 25.4933C140.207 26.3584 139.73 26.9182 139.333 27.2108C138.723 27.7197 138.206 27.6179 137.716 27.2872C137.04 26.8164 136.351 25.2134 136.378 23.1651C136.391 22.1473 136.59 21.1168 136.948 20.099C137.332 18.9922 138.021 17.9362 138.975 16.9566C140.035 15.8752 141.082 15.3027 142.46 15.061L142.447 15.0864Z" fill="#5C5B5B"/>
<path d="M178.383 18.4961C175.296 23.356 171.095 27.4272 165.451 29.0684V11.0154H161.992V33.8392C162.602 33.6993 163.158 33.5593 163.768 33.394C172.129 31.2057 178.038 26.0913 181.285 19.921L178.383 18.4961Z" fill="#5C5B5B"/>
<path d="M221.54 12.7329C221.818 12.0459 222.07 11.2953 222.295 10.5319C219.247 10.3157 218.889 10.2393 218.929 10.3665C217.79 14.196 214.729 18.318 211.482 21.0279L213.828 22.6945C216.292 20.977 218.346 18.7378 220.108 15.799L228.96 15.8371C228.642 17.7073 227.661 20.5826 226.893 22.0329L219.327 19.5393L218.121 22.2365L225.263 24.7046C222.931 27.8089 219.287 29.7681 215.06 31.1167C215.087 31.1803 216.279 33.8774 216.306 33.941C225.66 31.1421 231.464 24.2848 232.604 14.7049L232.776 12.822C232.776 12.822 222.388 12.7711 221.513 12.7329H221.54Z" fill="#5C5B5B"/>
<path d="M245.257 11.0281H241.799C241.971 17.5419 242.196 27.1727 237.307 31.9181L240.526 33.0759C245.283 28.3177 245.323 21.4477 245.257 14.4885C245.257 13.6998 245.244 11.8041 245.244 11.0281H245.257Z" fill="#5C5B5B"/>
<path d="M252.373 28.9793C252.373 28.9793 252.399 12.7583 252.399 11.0281H249.047V33.483C254.89 32.4779 259.038 27.847 261.158 23.6486L258.229 22.4018C258.229 22.4018 256.401 26.104 252.359 28.9666L252.373 28.9793Z" fill="#5C5B5B"/>
<path d="M283.193 10.3539H279.894V14.9721H272.354V10.3539H269.095V14.9721H265.066V18.0763H269.095V25.0482H272.354V18.0763H279.907C279.907 24.5774 279.072 29.0557 271.957 30.5824L271.864 30.6078L272.791 33.534L272.818 33.6103L272.897 33.5848C280.861 31.6256 283.206 27.4018 283.206 18.0763H287.46V14.9721H283.206V10.3539H283.193Z" fill="#5C5B5B"/>
<path d="M306.885 19.9083H291.541V23.2036H306.885V19.9083Z" fill="#5C5B5B"/>
<path d="M333.532 10.074L331.279 10.4048L332.657 15.2392L334.897 14.7685L333.532 10.074Z" fill="#5C5B5B"/>
<path d="M329.092 15.5191L331.398 15.0865L329.993 10.3284L327.701 10.7228L329.092 15.5191Z" fill="#5C5B5B"/>
<path d="M330.206 28.8902C329.596 27.3253 329.026 25.5569 328.51 23.6231C328.43 23.3305 328.351 23.0379 328.284 22.7453C327.821 20.8751 327.463 18.9031 327.198 16.8421C327.065 16.3714 326.615 11.3461 326.615 11.3461L323.289 11.7914C323.289 11.7914 323.938 17.8853 323.978 18.178C324.256 20.3789 324.627 22.4399 325.091 24.2974C325.595 26.3457 326.125 28.1141 326.668 29.5772C327.198 31.0148 327.794 32.3252 328.443 33.4702L331.849 32.6178C331.849 32.6178 330.789 30.3532 330.206 28.8774V28.8902Z" fill="#5C5B5B"/>
<path d="M314.609 11.6134C314.609 11.6134 314.384 16.3207 314.265 16.8932C314.079 18.9542 313.748 20.9389 313.311 22.8218C313.245 23.0889 312.079 27.2746 311.456 28.8267C310.873 30.2771 309.76 32.478 309.76 32.478L313.271 33.4067C313.841 32.3381 314.384 31.1422 314.941 29.73C315.497 28.3051 316.014 26.5749 316.451 24.6029C316.862 22.7836 317.511 17.8473 317.551 17.4402C317.644 16.9822 318.015 11.817 318.015 11.817L314.596 11.6261L314.609 11.6134Z" fill="#5C5B5B"/>
<path d="M203.293 15.8244C202.723 17.9363 202.021 19.7175 201.146 21.2569C200.895 21.7149 200.616 22.1474 200.338 22.5545C199.556 23.6741 198.668 24.6664 197.701 25.5061C197.145 25.9896 196.548 26.4349 195.899 26.842C194.945 27.4526 193.925 27.9615 192.865 28.3686C192.295 28.5849 191.712 28.7758 191.142 28.9157C189.777 29.2719 186.279 29.6918 186.279 29.6918L186.65 32.9996C186.65 32.9996 189.579 32.5797 191.036 32.249C194.72 31.4093 197.251 30.2261 200.245 27.6689C201.398 26.6766 202.432 25.4043 203.425 23.8141C204.83 21.5876 205.956 18.9668 206.619 16.2315L203.439 15.2646L203.28 15.8244H203.293Z" fill="#5C5B5B"/>
<path d="M196.057 12.7329L187.193 11.1808L186.623 14.2087L195.474 15.7608L196.057 12.7329Z" fill="#5C5B5B"/>
<path d="M122.77 20.0101C121.538 19.4504 120.067 19.1959 118.411 19.2722C115.853 19.3867 113.124 20.3791 110.911 21.9821V21.9185C111.004 20.7226 111.52 16.0535 111.52 16.0535L108.38 15.6973C108.38 15.6973 107.903 20.1501 107.744 22.6564C107.678 23.7123 107.559 25.2136 107.559 25.2136L109.93 25.7479L112.912 23.9032C113.985 23.2416 115.098 22.7582 116.238 22.4783C117.443 22.1729 118.503 22.1093 119.391 22.262C119.537 22.2874 119.696 22.3256 119.882 22.3765C120.465 22.5292 120.968 22.7709 121.392 23.0635C121.935 23.4452 122.333 23.9286 122.571 24.4757C122.85 25.1118 122.916 25.7733 122.783 26.4349C122.73 26.6639 122.651 26.9056 122.545 27.1728C122.359 27.6054 122.068 27.9998 121.657 28.4196C120.902 29.1829 119.749 29.7045 118.238 29.9717C116.847 30.2262 114.316 30.3152 111.812 30.2007L111.931 33.4067C111.931 33.4067 113.111 33.4322 113.641 33.4322C117.669 33.4322 120.902 32.9233 122.677 32.0073C125.248 30.6714 126.493 28.6486 126.493 25.8242C126.493 24.4884 126.202 23.3179 125.606 22.351C124.983 21.346 124.029 20.5445 122.77 19.972V20.0101Z" fill="#5C5B5B"/>
<path d="M116.211 13.9288C118.332 14.2469 119.763 14.5649 121.989 15.1629L122.837 12.135C118.994 11.1681 115.218 10.6846 111.229 10.3793C111.057 11.0408 110.554 12.6693 110.395 13.2927C112.157 13.4326 114.754 13.7125 116.211 13.9288Z" fill="#5C5B5B"/>
</svg>
