<svg xmlns="http://www.w3.org/2000/svg" width="237" height="43" viewBox="0 0 237 43" fill="none">
  <path d="M34.9361 2.72071C30.1113 -1.16498 23.0294 -0.32083 19.1322 4.49821L13.8534 11.0273C12.4414 12.7743 13.6818 15.3808 15.9258 15.3808H31.3756C33.5175 15.3808 35.3662 16.8798 35.8115 18.9793L35.905 19.4166L36.624 18.5267C40.5255 13.7012 39.7739 6.61511 34.9361 2.72071Z" fill="white"/>
  <g opacity="0.4">
    <mask id="mask0_2579_85709" style="mask-type:luminance" maskUnits="userSpaceOnUse" x="0" y="16" width="27" height="20">
      <path d="M26.1787 16.1553H0.3125V35.3009H26.1787V16.1553Z" fill="white"/>
    </mask>
    <g mask="url(#mask0_2579_85709)">
      <path d="M3.5285 16.1523L2.80946 17.0422C-1.09209 21.8677 -0.340454 28.9538 4.49737 32.8482C6.54807 34.4995 9.00934 35.298 11.4576 35.298C14.7682 35.298 18.0615 33.8403 20.3012 31.0707L25.58 24.5416C26.9921 22.7946 25.7516 20.1882 23.5076 20.1882H8.05568C5.91374 20.1882 4.06507 18.687 3.61974 16.5918L3.52633 16.1523" fill="white"/>
    </g>
  </g>
  <path d="M82.1562 24.719V36.2325C82.1562 39.844 84.8196 42.5092 89.527 42.5092C93.9608 42.5092 96.8522 40.0855 96.8522 36.1324V24.719H94.2801V35.397C94.2801 39.1456 92.6791 40.3553 89.7725 40.3553C86.7247 40.3553 85.5277 38.8062 85.5277 35.3209V24.7168H82.1562V24.719Z" fill="white"/>
  <path d="M146.85 29.2227H143.652V42.233H146.85V29.2227Z" fill="white"/>
  <path d="M145.25 27.721C146.299 27.721 147.149 26.8703 147.149 25.8195C147.149 24.7686 146.299 23.918 145.25 23.918C144.201 23.918 143.352 24.7686 143.352 25.8195C143.352 26.8703 144.201 27.721 145.25 27.721Z" fill="white"/>
  <path d="M178.121 34.5802C178.223 32.3001 178.936 30.799 180.845 30.799C182.755 30.799 183.322 32.459 183.38 34.5802H178.123H178.121ZM180.845 28.9475C176.935 28.9475 174.637 31.7236 174.637 35.7028V35.8269C174.637 39.954 177.237 42.5061 181.275 42.5061C182.959 42.5061 184.473 42.1427 186.052 41.2268V39.0011C184.556 40.1129 183.052 40.6546 181.319 40.6546C179.455 40.6546 178.082 39.3644 178.082 36.4295H186.824C186.824 31.7715 185.06 28.9453 180.841 28.9453" fill="white"/>
  <path d="M217.43 34.5802C217.532 32.3001 218.244 30.799 220.152 30.799C222.059 30.799 222.63 32.459 222.687 34.5802H217.43ZM220.152 28.9475C216.241 28.9475 213.945 31.7236 213.945 35.7028V35.8269C213.945 39.954 216.546 42.5061 220.584 42.5061C222.268 42.5061 223.782 42.1427 225.361 41.2268V39.0011C223.866 40.1129 222.363 40.6546 220.627 40.6546C218.764 40.6546 217.393 39.3644 217.393 36.4295H226.134C226.134 31.7715 224.37 28.9453 220.152 28.9453" fill="white"/>
  <path d="M168.966 38.7123V31.0737H172.732V29.2222H168.966V25.3691H165.768V29.2222H164.023V31.0737H165.768V38.9103C165.768 41.0185 167.495 42.5066 170.054 42.5066C171.214 42.5066 172.059 42.2847 172.763 41.8235V40.2005C172.063 40.455 171.485 40.5551 170.769 40.5551C169.691 40.5551 168.966 39.8328 168.966 38.7123Z" fill="white"/>
  <path d="M34.8166 28.8894C34.8166 27.4579 35.7985 26.6202 37.7102 26.6202C39.7935 26.6202 41.1642 27.2011 42.8695 28.3172V25.4976C41.1469 24.7753 39.372 24.4707 37.7058 24.4707C33.8999 24.4707 31.1953 26.3483 31.1953 29.1744C31.1953 34.9638 40.0694 34.0283 40.0694 37.9183C40.0694 39.463 38.9376 40.3333 37.3083 40.3333C34.9057 40.3333 32.7616 39.1302 31.2322 37.8552V40.7597C32.9745 42.0085 35.199 42.485 37.5408 42.485C41.2794 42.485 43.6907 40.5247 43.6907 37.5942C43.6907 31.4066 34.8166 32.625 34.8166 28.8916" fill="white"/>
  <path d="M104.506 26.8835H107.808C110.066 26.8835 111.58 27.9082 111.58 30.0295C111.58 32.29 109.779 33.0863 107.808 33.0863H104.504V26.8835H104.506ZM115.203 29.8707C115.203 26.0568 112.008 24.7188 108.925 24.7188H101.133V42.2326H104.506V35.2532H107.724L111.703 42.2326H115.588L111.382 34.8485C113.259 34.3394 115.203 32.8056 115.203 29.8728" fill="white"/>
  <path d="M75.3923 42.2326H79.6088L72.3075 32.4858L79.1917 24.7188H76.3199L67.7543 34.3829V24.7188H64.3828V42.2326H67.7543V37.6246L70.0222 35.0661L75.3923 42.2326Z" fill="white"/>
  <path d="M50.2824 35.4417L53.0109 28.3992L55.7372 35.4417H50.2824ZM58.3657 42.2297H61.9827L55.1506 24.5918H51.7227L44.8906 42.2297H47.6495L49.446 37.5934H56.567L58.3635 42.2297H58.3657Z" fill="white"/>
  <path d="M157.831 28.9453C156.109 28.9453 154.36 30.0984 153.584 31.1471V29.2216H150.387V42.2298H153.584V33.1182C154.301 31.7823 155.496 31.1297 156.502 31.1297C157.571 31.1297 158.418 31.9607 158.418 33.0268V42.2319H161.616V32.3154C161.616 30.7272 160.51 28.9475 157.831 28.9475" fill="white"/>
  <path d="M207.433 28.9463C205.71 28.9463 203.962 30.0994 203.186 31.148V29.2226H199.988V42.2307H203.186V33.1192C203.905 31.7833 205.098 31.1306 206.103 31.1306C207.172 31.1306 208.019 31.9617 208.019 33.0278V42.2329H211.217V32.3164C211.217 30.7281 210.111 28.9485 207.433 28.9485" fill="white"/>
  <path d="M192.909 31.5194V29.2219H189.711V42.2322H192.909V33.5014C194.229 32.0633 195.767 31.5237 197.736 31.5237V29.0957C195.678 29.0957 193.949 30.0987 192.909 31.5194Z" fill="white"/>
  <path d="M122.729 35.4417L125.458 28.3992L128.184 35.4417H122.729ZM130.815 42.2297H134.432L127.6 24.5918H124.172L117.34 42.2297H120.101L121.897 37.5934H129.018L130.815 42.2297Z" fill="white"/>
  <path d="M232.887 38.7123V31.0737H236.654V29.2222H232.887V25.3691H229.69V29.2222H227.945V31.0737H229.69V38.9103C229.69 41.0185 231.417 42.5066 233.976 42.5066C235.136 42.5066 235.983 42.2847 236.685 41.8235V40.2005C235.987 40.455 235.407 40.5551 234.69 40.5551C233.615 40.5551 232.887 39.8328 232.887 38.7123Z" fill="white"/>
</svg>
